<svg width="current" height="current" viewBox="0 0 24 24" fill="none" xmlns="http://www.w3.org/2000/svg">
<g id="Icon/Navi">
<path id="Vector (Stroke)" fill-rule="evenodd" clip-rule="evenodd" d="M3.46967 3.46969C3.26405 3.67531 3.19582 3.98125 3.29458 4.25475L8.97117 19.9745C8.97823 19.9941 8.9861 20.0133 8.99477 20.0322C9.09291 20.2464 9.25049 20.4279 9.44875 20.5551C9.64702 20.6824 9.87766 20.75 10.1132 20.75C10.3488 20.75 10.5795 20.6824 10.7777 20.5551C10.9716 20.4307 11.1266 20.2544 11.2251 20.0465L14.1655 14.1656L20.0464 11.2251C20.2544 11.1266 20.4307 10.9716 20.5551 10.7778C20.6824 10.5795 20.75 10.3489 20.75 10.1133C20.75 9.87768 20.6824 9.64705 20.5551 9.44878C20.4279 9.25051 20.2464 9.09293 20.0322 8.99479C20.0133 8.98613 19.9941 8.97825 19.9745 8.97119L4.25473 3.29461C3.98123 3.19584 3.67529 3.26407 3.46967 3.46969ZM18.8342 10.1542L13.2711 12.9357C13.126 13.0083 13.0083 13.126 12.9357 13.2711L10.1542 18.8342L5.24811 5.24813L18.8342 10.1542Z" fill="current"/>
</g>
</svg>
